<?xml version="1.0" standalone="no"?>
<!DOCTYPE svg PUBLIC "-//W3C//DTD SVG 20010904//EN"
 "http://www.w3.org/TR/2001/REC-SVG-20010904/DTD/svg10.dtd">
<svg version="1.0" xmlns="http://www.w3.org/2000/svg"
 width="1024.000000pt" height="1024.000000pt" viewBox="0 0 1024.000000 1024.000000"
 preserveAspectRatio="xMidYMid meet">

<g transform="translate(0.000000,1024.000000) scale(0.100000,-0.100000)"
fill="#000000" stroke="none">
<path d="M3605 8780 c88 -3 150 -7 138 -8 -13 -1 -22 -8 -20 -14 1 -7 -4 -12
-11 -10 -8 1 -11 -2 -7 -8 3 -6 11 -8 16 -5 5 4 9 1 9 -4 0 -6 -11 -11 -24
-11 -18 0 -23 -5 -21 -17 1 -10 8 -17 15 -15 8 2 10 -3 7 -13 -4 -8 -1 -16 6
-17 7 0 -8 -4 -33 -8 l-45 -7 60 -1 c68 -2 337 -35 468 -58 48 -8 176 -37 285
-65 528 -134 774 -243 1011 -449 l85 -74 115 -13 c138 -15 310 -50 481 -97 69
-19 126 -33 128 -31 5 4 -71 100 -155 196 -154 176 -362 344 -543 437 -152 79
-394 169 -580 217 -98 25 -372 67 -402 62 -22 -4 -32 -13 -15 -15 6 0 44 -7
82 -16 81 -18 86 -18 -215 13 -275 29 -514 41 -768 39 l-227 -2 160 -6z m1158
-67 c-7 -2 -19 -2 -25 0 -7 3 -2 5 12 5 14 0 19 -2 13 -5z"/>
<path d="M3500 8385 c0 -5 5 -17 10 -25 5 -8 10 -10 10 -5 0 6 -5 17 -10 25
-5 8 -10 11 -10 5z"/>
<path d="M3685 8270 c9 -16 18 -30 21 -30 2 0 -2 14 -11 30 -9 17 -18 30 -21
30 -2 0 2 -13 11 -30z"/>
<path d="M3567 8232 c3 -12 9 -25 14 -28 14 -8 11 10 -6 32 -13 18 -14 18 -8
-4z"/>
<path d="M3729 8195 c17 -33 31 -51 31 -40 0 6 -10 21 -21 35 -13 17 -17 18
-10 5z"/>
<path d="M3625 8125 c86 -164 298 -409 442 -510 40 -27 74 -57 76 -65 8 -29
-104 -179 -243 -327 -284 -303 -330 -349 -338 -335 -15 22 -161 27 -219 8
-159 -53 -255 -200 -239 -366 3 -36 12 -85 20 -110 l14 -45 -292 -295 c-160
-162 -380 -386 -488 -496 -197 -203 -222 -226 -213 -202 3 7 -16 43 -41 78
-58 80 -53 74 -60 67 -8 -8 -12 -67 -4 -62 4 2 4 -9 2 -26 -2 -16 -9 -29 -16
-29 -6 0 -4 -5 4 -11 12 -9 12 -10 -3 -5 -10 3 -21 6 -23 6 -3 0 -2 6 3 13 15
23 11 37 -10 37 -20 0 -21 0 -1 -16 19 -15 19 -15 -2 -11 -20 4 -21 2 -11 -27
5 -17 12 -37 13 -44 2 -7 9 -10 15 -6 8 5 9 3 3 -7 -5 -8 -7 -41 -5 -75 1 -34
-3 -79 -10 -102 -28 -96 -124 -162 -234 -162 -42 0 -56 3 -45 10 13 8 12 10
-3 10 -64 0 -152 84 -178 170 l-7 25 -1 -25 c-1 -15 4 -31 11 -38 9 -9 9 -12
0 -12 -7 0 -12 5 -12 10 0 6 -7 10 -15 10 -8 0 -15 4 -15 9 0 5 -8 11 -19 14
-14 3 -17 0 -14 -13 3 -10 0 -21 -6 -24 -6 -4 -11 -1 -11 6 0 9 -3 9 -10 -2
-5 -8 -10 -10 -10 -4 0 5 3 14 8 20 4 5 5 8 3 7 -2 -2 -11 3 -19 9 -13 11 -14
6 -9 -32 6 -39 5 -41 -3 -14 -5 17 -14 62 -19 100 -6 50 -9 58 -10 30 -3 -116
57 -287 120 -340 19 -16 63 -43 99 -60 59 -28 74 -31 166 -31 96 0 103 2 176
38 52 25 91 54 121 87 36 40 51 49 73 48 22 -2 83 -61 298 -286 246 -258 321
-342 255 -287 l-24 20 19 -22 c10 -13 22 -21 26 -18 3 2 28 -18 54 -44 l48
-49 -12 -73 c-27 -168 49 -332 198 -428 52 -33 136 -50 217 -44 49 4 52 3 130
-60 111 -90 274 -242 391 -366 55 -58 93 -101 87 -97 -9 5 -13 -1 -13 -21 0
-18 3 -23 8 -16 5 7 8 -69 9 -170 0 -119 -2 -161 -7 -122 -6 53 -7 48 -8 -45
-1 -219 -15 -670 -21 -669 -3 0 -41 54 -85 119 -211 318 -438 552 -1041 1070
-420 361 -587 513 -777 708 -134 138 -275 300 -340 392 -16 22 -16 20 1 -25
40 -105 135 -315 197 -435 120 -229 257 -418 463 -634 97 -102 109 -121 26
-41 -12 11 -33 29 -47 40 -63 51 168 -165 352 -328 641 -567 840 -777 1242
-1312 74 -99 159 -215 188 -257 30 -43 57 -78 61 -78 14 0 160 143 260 256
465 521 705 1019 750 1558 18 218 -9 445 -77 642 -178 523 -611 950 -1154
1140 -52 18 -96 31 -98 30 -2 -2 21 -18 50 -36 465 -286 733 -729 822 -1359
30 -207 25 -564 -9 -756 -16 -87 -16 -97 5 135 5 52 8 176 8 275 -1 99 -3 131
-5 70 -10 -452 -72 -789 -226 -1225 -84 -239 -114 -310 -222 -525 l-100 -200
-5 964 -5 964 -277 272 c-153 150 -278 278 -278 285 0 7 9 24 20 40 143 200
54 493 -175 579 -93 35 -248 23 -321 -26 -13 -8 -32 -12 -42 -9 -19 6 -684
667 -691 687 -2 6 104 120 236 252 131 133 361 366 511 518 l273 276 42 -16
c65 -24 220 -21 277 6 72 33 135 96 172 171 30 60 33 75 33 157 0 77 -4 99
-28 149 -15 32 -27 63 -27 68 0 6 69 81 153 167 84 86 218 223 297 305 184
188 181 186 197 186 8 0 32 -9 54 -20 67 -35 199 -80 304 -106 198 -48 286
-55 760 -64 637 -12 755 -24 846 -84 73 -48 155 -176 190 -295 12 -39 22 -49
84 -89 291 -184 735 -496 722 -508 -2 -2 -44 14 -93 37 -312 145 -534 215
-874 278 -253 47 -370 81 -490 139 -102 49 -125 65 -198 140 l-84 84 -76 14
c-43 7 -196 21 -342 29 -259 15 -448 30 -502 41 -24 5 -30 0 -53 -45 -119
-235 -274 -684 -355 -1024 -29 -124 -84 -427 -78 -432 2 -2 95 -46 208 -98
547 -253 894 -440 1210 -652 491 -330 819 -641 946 -900 58 -118 75 -187 81
-320 6 -130 -9 -213 -61 -342 -19 -48 -34 -88 -33 -90 5 -5 161 107 267 192
185 147 470 440 569 582 20 29 39 52 44 53 13 0 7 -186 -8 -269 -17 -86 -74
-257 -119 -355 l-27 -59 63 54 c361 311 584 675 668 1089 22 107 39 350 25
350 -12 0 -258 -140 -501 -286 -231 -137 -438 -272 -512 -331 l-43 -35 -22 29
c-69 89 -208 241 -303 333 -285 275 -739 586 -1459 1000 -60 35 -130 75 -155
90 -25 15 -107 62 -182 104 l-138 77 0 84 c0 83 23 226 61 380 17 70 88 295
92 295 1 0 2 -78 2 -172 0 -198 10 -249 76 -383 l40 -83 242 -137 c642 -365
1070 -650 1357 -903 47 -41 162 -148 255 -237 l170 -162 129 74 c214 123 429
239 666 361 124 63 230 119 237 124 20 16 71 113 93 177 12 36 20 86 20 123
-1 122 -3 126 -178 302 -154 156 -232 246 -232 271 0 6 34 -6 78 -27 101 -50
189 -68 342 -68 111 0 407 24 417 33 5 6 -546 399 -905 647 -56 39 -107 68
-113 65 -5 -4 -8 -2 -7 4 3 10 -74 67 -312 228 -63 43 -121 84 -129 91 -8 8
-33 25 -55 39 -23 14 -43 29 -46 32 -3 4 -18 15 -35 25 -16 11 -73 51 -125 90
-52 38 -96 70 -97 71 -2 1 5 55 14 120 16 110 16 120 0 147 -9 16 -12 26 -7
23 6 -3 10 3 10 14 0 24 -48 83 -61 75 -5 -3 -9 1 -9 8 -1 22 -117 99 -208
138 -105 45 -408 121 -618 155 -85 14 -290 41 -455 60 -279 31 -304 36 -328
58 -38 35 -101 68 -113 61 -7 -4 -8 -2 -4 5 5 7 -9 19 -39 32 -26 11 -48 19
-51 17 -2 -3 15 -12 37 -22 22 -10 38 -20 36 -23 -3 -2 -15 0 -26 7 -23 12
-425 150 -438 150 -4 0 13 -14 38 -32 103 -73 142 -107 294 -252 88 -84 204
-192 257 -240 54 -49 96 -91 94 -95 -3 -4 -114 -7 -247 -6 -134 0 -229 -3
-213 -6 21 -5 23 -7 8 -8 -12 0 -36 2 -55 6 -28 5 -30 7 -14 15 14 5 10 6 -12
2 -70 -12 -330 114 -500 243 -120 92 -335 312 -372 382 -6 11 -20 19 -30 18
-17 -1 -18 -3 -5 -21 19 -28 18 -29 -16 -45 -29 -12 -30 -14 -13 -28 10 -8 12
-12 5 -8 -6 3 -15 -1 -18 -10 -5 -11 -20 6 -53 59 -68 110 -76 119 -36 41z
m169 -31 c5 -14 4 -15 -9 -4 -17 14 -19 20 -6 20 5 0 12 -7 15 -16z m-36 -98
c-13 -9 -14 -16 -6 -24 6 -6 9 -14 6 -17 -3 -3 -13 6 -23 21 -9 15 -13 24 -8
21 5 -3 15 -2 23 4 22 13 28 10 8 -5z m1055 -533 c-7 -2 -21 -2 -30 0 -10 3
-4 5 12 5 17 0 24 -2 18 -5z m1933 -45 l29 -33 -35 30 c-19 17 -37 31 -39 33
-2 1 0 2 5 2 6 0 23 -15 40 -32z m-3322 -530 c-3 -5 5 -7 18 -5 12 2 17 2 11
0 -7 -3 -13 -9 -13 -14 0 -6 -10 -8 -22 -4 -13 4 -18 3 -12 -2 8 -5 9 -22 5
-46 -5 -31 -12 -41 -38 -52 -18 -8 -33 -10 -33 -6 0 5 13 14 28 20 20 9 28 19
30 41 1 16 -3 32 -9 36 -7 4 -9 3 -5 -4 3 -6 -2 -16 -11 -22 -13 -8 -14 -13
-5 -16 25 -11 11 -22 -25 -19 -21 1 -32 1 -25 -2 6 -3 12 -12 12 -21 0 -14 -2
-15 -9 -3 -8 12 -12 12 -25 2 -18 -15 -11 -35 11 -27 8 4 11 1 8 -5 -4 -6 -14
-8 -22 -5 -8 4 -11 2 -7 -5 4 -8 -1 -9 -17 -5 -23 7 -23 7 -5 -8 22 -18 36
-20 36 -8 0 19 94 55 144 56 57 0 136 -37 157 -75 6 -11 13 -18 16 -15 3 3 17
-9 30 -26 17 -24 23 -45 23 -83 0 -123 -102 -225 -224 -225 -48 0 -131 38
-131 60 -1 8 -7 14 -15 12 -8 -2 -12 0 -8 3 4 4 -3 26 -16 49 -13 22 -27 53
-30 69 -4 15 -12 27 -19 27 -8 0 -7 3 3 9 8 6 14 24 13 47 -1 20 2 32 6 25 5
-8 11 -3 19 14 18 39 15 47 -10 34 -14 -8 -18 -14 -10 -17 16 -5 16 -20 0 -19
-34 1 -48 -4 -48 -18 0 -8 -4 -15 -10 -15 -5 0 -10 -6 -10 -12 1 -7 10 -2 20
11 23 26 27 15 6 -14 -10 -14 -11 -25 -4 -38 5 -10 7 -21 4 -25 -3 -3 -6 0 -6
7 0 7 -5 9 -10 6 -6 -4 -10 -3 -9 2 4 22 -2 43 -12 43 -6 0 -9 -6 -6 -14 3 -8
-1 -20 -9 -26 -8 -7 -15 -9 -15 -4 -1 5 -5 -9 -10 -31 -7 -38 -8 -37 -5 12 2
32 -1 50 -7 46 -11 -7 -3 40 20 110 21 67 98 149 168 177 30 12 64 20 75 17
11 -3 20 -2 20 2 0 4 7 8 15 8 8 0 12 -4 9 -9z m3720 -110 c49 -38 67 -54 46
-42 -30 18 -100 67 -100 70 0 10 15 2 54 -28z m156 -114 c0 -3 -20 9 -45 26
-25 17 -45 33 -45 36 0 3 20 -9 45 -26 25 -17 45 -33 45 -36z m82 -52 c27 -19
53 -30 59 -26 7 4 9 3 6 -3 -3 -5 46 -45 109 -88 63 -43 118 -83 121 -88 8
-13 -336 219 -357 240 -13 14 -13 15 0 7 8 -4 36 -23 62 -42z m411 -280 c76
-54 54 -47 -28 9 -41 28 -75 53 -75 55 0 5 38 -18 103 -64z m78 -59 c13 -16
12 -17 -3 -4 -10 7 -18 15 -18 17 0 8 8 3 21 -13z m65 -44 c3 -6 -5 -3 -20 6
-14 10 -26 19 -26 22 0 7 39 -17 46 -28z m141 -103 c4 -5 -22 10 -56 34 -34
24 -65 48 -68 54 -4 5 22 -10 56 -34 34 -24 65 -48 68 -54z m104 -67 c32 -23
59 -44 59 -46 0 -5 -12 2 -79 49 -30 21 -51 38 -47 38 4 0 34 -19 67 -41z
m189 -135 c0 -2 -9 0 -20 6 -11 6 -20 13 -20 16 0 2 9 0 20 -6 11 -6 20 -13
20 -16z m-1774 -5 c79 -14 176 -45 249 -81 77 -38 91 -52 44 -43 -42 8 -129
-8 -208 -37 l-53 -20 78 -42 c122 -64 274 -219 401 -411 55 -82 120 -168 144
-190 88 -81 198 -144 252 -145 55 0 24 -19 -99 -59 -149 -49 -385 -96 -396
-79 -3 7 -9 27 -13 47 -10 52 -71 167 -130 246 -178 237 -544 498 -822 587
-40 13 -73 25 -72 28 0 3 30 29 67 58 78 62 189 119 264 138 66 15 215 17 294
3z m-3986 -102 c0 -2 -10 -12 -22 -23 l-23 -19 19 23 c18 21 26 27 26 19z
m-550 -317 c0 -5 -2 -10 -4 -10 -3 0 -8 5 -11 10 -3 6 -1 10 4 10 6 0 11 -4
11 -10z m250 7 c0 -2 -12 -14 -27 -28 l-28 -24 24 28 c23 25 31 32 31 24z
m-220 -52 c11 -13 10 -14 -4 -9 -9 3 -16 10 -16 15 0 13 6 11 20 -6z m-20 -39
c0 -3 -4 -8 -10 -11 -5 -3 -10 -1 -10 4 0 6 5 11 10 11 6 0 10 -2 10 -4z
m1194 -1059 c46 -25 82 -73 95 -126 15 -59 22 -133 12 -127 -5 4 -7 -2 -4 -12
6 -25 -39 -78 -89 -103 -32 -16 -50 -19 -101 -14 -90 10 -119 21 -160 63 -44
45 -57 78 -57 143 0 62 18 105 61 147 64 63 161 74 243 29z m-846 -1146 c149
-134 170 -156 77 -77 -131 110 -181 155 -172 156 5 0 48 -35 95 -79z m202
-176 c13 -14 21 -25 18 -25 -2 0 -15 11 -28 25 -13 14 -21 25 -18 25 2 0 15
-11 28 -25z m1937 -252 c-3 -10 -5 -4 -5 12 0 17 2 24 5 18 2 -7 2 -21 0 -30z
m-10 -55 c-3 -7 -5 -2 -5 12 0 14 2 19 5 13 2 -7 2 -19 0 -25z m-10 -50 c-3
-8 -6 -5 -6 6 -1 11 2 17 5 13 3 -3 4 -12 1 -19z m-10 -50 c-3 -7 -5 -2 -5 12
0 14 2 19 5 13 2 -7 2 -19 0 -25z"/>
<path d="M3502 7625 c0 -16 2 -22 5 -12 2 9 2 23 0 30 -3 6 -5 -1 -5 -18z"/>
<path d="M5925 6904 c43 -33 155 -83 263 -117 l114 -36 -7 77 c-4 42 -9 80
-11 84 -3 4 -89 7 -192 7 -171 1 -185 -1 -167 -15z"/>
<path d="M8570 5697 c-93 -55 -173 -113 -189 -136 -13 -19 -21 -62 -30 -159
-14 -162 -47 -293 -100 -407 -22 -47 -37 -85 -35 -85 13 0 153 123 180 157
126 158 171 268 208 509 18 113 20 144 9 143 -5 0 -24 -10 -43 -22z"/>
<path d="M1494 5538 l-19 -23 23 19 c21 18 27 26 19 26 -2 0 -12 -10 -23 -22z"/>
<path d="M1458 5493 c-20 -23 -58 -98 -58 -115 0 -7 12 12 26 42 14 30 33 63
41 72 9 10 14 18 11 18 -3 0 -12 -8 -20 -17z"/>
<path d="M1690 5470 c-11 -8 -7 -9 15 -4 37 8 45 14 19 14 -10 0 -26 -5 -34
-10z"/>
<path d="M1783 5473 c9 -2 23 -2 30 0 6 3 -1 5 -18 5 -16 0 -22 -2 -12 -5z"/>
<path d="M1830 5466 c0 -2 7 -7 16 -10 8 -3 12 -2 9 4 -6 10 -25 14 -25 6z"/>
<path d="M1940 5421 c0 -5 7 -15 17 -22 15 -13 15 -12 4 9 -12 23 -21 28 -21
13z"/>
<path d="M1392 5335 c0 -16 2 -22 5 -12 2 9 2 23 0 30 -3 6 -5 -1 -5 -18z"/>
<path d="M1522 5250 c0 -14 2 -19 5 -12 2 6 2 18 0 25 -3 6 -5 1 -5 -13z"/>
<path d="M1427 5199 c7 -7 15 -10 18 -7 3 3 -2 9 -12 12 -14 6 -15 5 -6 -5z"/>
<path d="M4576 4922 c242 -167 479 -383 637 -581 166 -209 280 -433 350 -690
30 -114 31 -121 32 -341 0 -248 -13 -336 -77 -519 -68 -197 -239 -498 -358
-633 -23 -27 -39 -48 -37 -48 13 0 171 99 257 160 276 198 513 475 600 702
107 277 104 522 -9 803 -133 330 -426 643 -841 900 -133 82 -577 295 -616 295
-4 0 24 -22 62 -48z"/>
<path d="M2781 4304 c0 -11 3 -14 6 -6 3 7 2 16 -1 19 -3 4 -6 -2 -5 -13z"/>
<path d="M4511 3934 c0 -11 3 -14 6 -6 3 7 2 16 -1 19 -3 4 -6 -2 -5 -13z"/>
<path d="M4521 3894 c0 -11 3 -14 6 -6 3 7 2 16 -1 19 -3 4 -6 -2 -5 -13z"/>
<path d="M4531 3844 c0 -11 3 -14 6 -6 3 7 2 16 -1 19 -3 4 -6 -2 -5 -13z"/>
<path d="M4542 3795 c0 -11 5 -54 13 -95 7 -41 13 -61 13 -45 1 17 -5 59 -12
95 -8 36 -14 56 -14 45z"/>
<path d="M4573 3565 c0 -33 2 -45 4 -27 2 18 2 45 0 60 -2 15 -4 0 -4 -33z"/>
</g>
</svg>
